# xmcd CD database file
# Copyright (C) 1993-1998 Ti Kan
# 
# Track frame offsets:
#     150
#     14832
#     37085
#     53382
#     77672
#     98210
#     116205
#     132677
#     151700
#     167050
#     183700
#     200620
#     220035
#     233925
#     248430
#     262010
#     279617
#     296205
#     310637
# 
# Disc length: 4309 seconds
# 
# Revision: 1
# Processed by: cddbd v1.4b41PL1 Copyright (c) Steve Scherf et al.
# Submitted via: DiscPlay 4.0.4
# 
DISCID=1910d313
DTITLE=Alabama - Close Enough To Perfect
DYEAR=1900
DGENRE=
TTITLE0=Old Flame
TTITLE1=Take Me Down
TTITLE2=Close Enough To Perfect
TTITLE3=Dixieland Delight
TTITLE4=The Closer You Get
TTITLE5=Lady Down On Love
TTITLE6=When We Make Love
TTITLE7=There's No Way
TTITLE8=Forty Hour Week (For a Livin')
TTITLE9=Can't Keep A Good Man Down
TTITLE10=Touch Me When We're Dancing
TTITLE11=You've Got The Touch
TTITLE12=Face To Face
TTITLE13=Song Of The South
TTITLE14=You Can't Take The Country Out Of Me
TTITLE15=Homesick Fever
TTITLE16=Jukebox In My Mind
TTITLE17=Southern Star
TTITLE18=Barefootin'
EXTD=
EXTT0=
EXTT1=
EXTT2=
EXTT3=
EXTT4=
EXTT5=
EXTT6=
EXTT7=
EXTT8=
EXTT9=
EXTT10=
EXTT11=
EXTT12=
EXTT13=
EXTT14=
EXTT15=
EXTT16=
EXTT17=
EXTT18=
PLAYORDER=
